<svg width="600" height="400" viewBox="0 0 600 400" fill="none" xmlns="http://www.w3.org/2000/svg">
<mask id="mask0_58_1048" style="mask-type:alpha" maskUnits="userSpaceOnUse" x="0" y="0" width="600" height="400">
<rect width="600" height="400" fill="white"/>
</mask>
<g mask="url(#mask0_58_1048)">
<circle cx="422" cy="152" r="40" fill="white"/>
<path fill-rule="evenodd" clip-rule="evenodd" d="M456.091 131.823C445.634 126.808 433.918 124 421.545 124C409.173 124 397.457 126.808 387 131.823C393.941 119.964 406.813 112 421.545 112C436.278 112 449.15 119.964 456.091 131.823Z" fill="#F6BD60"/>
<ellipse cx="427" cy="156" rx="15" ry="20" fill="#2D2D2D"/>
<ellipse cx="434.5" cy="156" rx="7.5" ry="10" fill="white"/>
<circle cx="512" cy="152" r="40" fill="white"/>
<ellipse cx="517" cy="156" rx="15" ry="20" fill="#2D2D2D"/>
<ellipse cx="524.5" cy="157" rx="7.5" ry="10" fill="white"/>
<path fill-rule="evenodd" clip-rule="evenodd" d="M546.091 131.823C535.634 126.808 523.918 124 511.545 124C499.173 124 487.457 126.808 477 131.823C483.941 119.964 496.813 112 511.545 112C526.278 112 539.15 119.964 546.091 131.823Z" fill="#F6BD60"/>
<rect x="422" y="190.774" width="6" height="100" transform="rotate(-7.41188 422 190.774)" fill="white"/>
<rect x="506.4" y="189" width="6" height="100" transform="rotate(18.3004 506.4 189)" fill="white"/>
<path d="M458.265 269.026C469.259 265.752 480.748 272.377 483.422 283.532L504.202 370.217C507.18 382.641 497.906 394.633 485.133 394.876L151.989 401.207C128.709 401.649 123.585 368.687 145.901 362.042L458.265 269.026Z" fill="white"/>
<mask id="path-13-inside-1_58_1048" fill="white">
<path d="M189.617 299.153C191.354 294.196 192.098 288.945 191.805 283.7C191.513 278.456 190.19 273.32 187.913 268.586C185.635 263.853 182.448 259.614 178.532 256.112C174.617 252.611 170.05 249.914 165.093 248.178L151.867 285.928L189.617 299.153Z"/>
</mask>
<path d="M189.617 299.153C191.354 294.196 192.098 288.945 191.805 283.7C191.513 278.456 190.19 273.32 187.913 268.586C185.635 263.853 182.448 259.614 178.532 256.112C174.617 252.611 170.05 249.914 165.093 248.178L151.867 285.928L189.617 299.153Z" fill="#B3F4E0" stroke="#66E8C1" stroke-width="2" mask="url(#path-13-inside-1_58_1048)"/>
<mask id="path-14-inside-2_58_1048" fill="white">
<path d="M113.154 335.94C120.59 338.546 128.466 339.661 136.333 339.222C144.2 338.783 151.904 336.799 159.004 333.383C166.105 329.967 172.463 325.186 177.715 319.313C182.968 313.44 187.012 306.59 189.617 299.153L132.992 279.315L113.154 335.94Z"/>
</mask>
<path d="M113.154 335.94C120.59 338.546 128.466 339.661 136.333 339.222C144.2 338.783 151.904 336.799 159.004 333.383C166.105 329.967 172.463 325.186 177.715 319.313C182.968 313.44 187.012 306.59 189.617 299.153L132.992 279.315L113.154 335.94Z" fill="#B3F4E0" stroke="#66E8C1" stroke-width="2" mask="url(#path-14-inside-2_58_1048)"/>
<mask id="path-15-inside-3_58_1048" fill="white">
<path d="M51.8421 208.501C47.5001 220.894 45.6417 234.022 46.373 247.133C47.1043 260.245 50.411 273.085 56.1043 284.919C61.7976 296.752 69.766 307.349 79.5545 316.103C89.3431 324.858 100.76 331.598 113.154 335.94L146.218 241.565L51.8421 208.501Z"/>
</mask>
<path d="M51.8421 208.501C47.5001 220.894 45.6417 234.022 46.373 247.133C47.1043 260.245 50.411 273.085 56.1043 284.919C61.7976 296.752 69.766 307.349 79.5545 316.103C89.3431 324.858 100.76 331.598 113.154 335.94L146.218 241.565L51.8421 208.501Z" fill="#B3F4E0" stroke="#66E8C1" stroke-width="2" mask="url(#path-15-inside-3_58_1048)"/>
<mask id="path-16-inside-4_58_1048" fill="white">
<path d="M255.746 110.402C235.916 103.455 214.912 100.481 193.933 101.652C172.954 102.822 152.411 108.112 133.477 117.222C114.543 126.331 97.5883 139.08 83.5813 154.742C69.5743 170.404 58.7893 188.671 51.8421 208.501L202.843 261.403L255.746 110.402Z"/>
</mask>
<path d="M255.746 110.402C235.916 103.455 214.912 100.481 193.933 101.652C172.954 102.822 152.411 108.112 133.477 117.222C114.543 126.331 97.5883 139.08 83.5813 154.742C69.5743 170.404 58.7893 188.671 51.8421 208.501L202.843 261.403L255.746 110.402Z" fill="#B3F4E0" stroke="#66E8C1" stroke-width="2" mask="url(#path-16-inside-4_58_1048)"/>
<mask id="path-17-inside-5_58_1048" fill="white">
<path d="M418.799 281.02C407.002 241.722 386.071 205.774 357.718 176.116C329.365 146.457 294.396 123.929 255.669 110.375L169.779 355.779L418.799 281.02Z"/>
</mask>
<path d="M418.799 281.02C407.002 241.722 386.071 205.774 357.718 176.116C329.365 146.457 294.396 123.929 255.669 110.375L169.779 355.779L418.799 281.02Z" fill="#B3F4E0" stroke="#66E8C1" stroke-width="2" mask="url(#path-17-inside-5_58_1048)"/>
<mask id="path-18-inside-6_58_1048" fill="white">
<path d="M165.093 248.178C162.614 247.309 159.989 246.938 157.366 247.084C154.744 247.23 152.176 247.891 149.809 249.03C147.442 250.169 145.323 251.762 143.572 253.72C141.821 255.678 140.473 257.961 139.605 260.44L158.48 267.053L165.093 248.178Z"/>
</mask>
<path d="M165.093 248.178C162.614 247.309 159.989 246.938 157.366 247.084C154.744 247.23 152.176 247.891 149.809 249.03C147.442 250.169 145.323 251.762 143.572 253.72C141.821 255.678 140.473 257.961 139.605 260.44L158.48 267.053L165.093 248.178Z" fill="#B3F4E0" stroke="#66E8C1" stroke-width="2" mask="url(#path-18-inside-6_58_1048)"/>
<mask id="path-19-inside-7_58_1048" fill="white">
<path d="M139.605 260.44C138.736 262.919 138.365 265.544 138.511 268.166C138.657 270.789 139.319 273.357 140.457 275.723C141.596 278.09 143.19 280.21 145.147 281.96C147.105 283.711 149.388 285.059 151.867 285.928L158.48 267.053L139.605 260.44Z"/>
</mask>
<path d="M139.605 260.44C138.736 262.919 138.365 265.544 138.511 268.166C138.657 270.789 139.319 273.357 140.457 275.723C141.596 278.09 143.19 280.21 145.147 281.96C147.105 283.711 149.388 285.059 151.867 285.928L158.48 267.053L139.605 260.44Z" fill="#B3F4E0" stroke="#66E8C1" stroke-width="2" mask="url(#path-19-inside-7_58_1048)"/>
</g>
</svg>
